<svg width="836" height="249" viewBox="0 0 836 249" fill="none" xmlns="http://www.w3.org/2000/svg">
<g id="Group 2">
<g id="The Eastern&#226;&#128;&#153;s Easter" filter="url(#filter0_d)">
<path d="M129.84 138.36C130.587 137.827 131.28 137.827 131.92 138.36C132.667 138.787 133.04 139.373 133.04 140.12C133.04 140.867 132.72 141.507 132.08 142.04C127.813 144.92 123.013 146.733 117.68 147.48C112.133 148.12 105.2 147.853 96.88 146.68C93.5733 146.147 89.1467 145.347 83.6 144.28C82.32 145.987 81.52 147.267 81.2 148.12C79.1733 151.64 77.4133 155.427 75.92 159.48C72.4 169.08 70.3733 179.693 69.84 191.32C69.52 197.08 69.7867 202.627 70.64 207.96C70.8533 208.813 71.0133 209.133 71.12 208.92C71.12 208.92 71.12 208.813 71.12 208.6C71.3333 206.787 71.6 205.027 71.92 203.32C72.3467 201.613 73.0933 198.68 74.16 194.52C75.3333 190.253 77.0933 186.307 79.44 182.68C81.7867 178.947 84.56 175.96 87.76 173.72C88.5067 173.187 89.2 173.133 89.84 173.56C90.48 173.987 90.8 174.573 90.8 175.32C90.8 176.067 90.5333 176.813 90 177.56C86.6933 180.547 84.0267 183.96 82 187.8C80.08 191.64 78.8 195.053 78.16 198.04C77.6267 201.027 76.9867 204.013 76.24 207C75.6 210.093 74.8533 212.28 74 213.56C72.6133 215.8 70.8533 216.92 68.72 216.92C64.56 217.027 62 213.133 61.04 205.24C59.76 193.613 60.8267 181.08 64.24 167.64C66.3733 159.747 69.2 152.653 72.72 146.36C72.8267 146.04 73.52 144.813 74.8 142.68C65.9467 141.187 59.28 140.493 54.8 140.6C47.2267 140.813 40.0267 142.84 33.2 146.68C32.4533 147.107 31.7067 147.107 30.96 146.68C30.32 146.253 30 145.667 30 144.92C30 144.173 30.3733 143.533 31.12 143C38.6933 138.627 46.9067 136.387 55.76 136.28C60.0267 136.173 66.48 136.867 75.12 138.36C76.1867 138.573 79.44 139.16 84.88 140.12C90.32 141.08 94.5333 141.827 97.52 142.36C105.947 143.64 112.933 143.853 118.48 143C122.427 142.36 126.213 140.813 129.84 138.36ZM124.753 174.52C125.073 173.667 125.659 173.187 126.513 173.08C127.366 172.867 128.059 173.027 128.593 173.56C129.233 174.093 129.393 174.787 129.073 175.64C128.433 177.453 127.473 179.907 126.193 183C124.913 185.987 123.099 189.827 120.753 194.52C118.513 199.213 115.899 203.213 112.913 206.52C110.033 209.72 107.313 211.32 104.753 211.32C104.006 211.32 103.313 211.107 102.673 210.68C102.139 210.36 101.659 209.88 101.233 209.24C100.806 208.707 100.486 208.067 100.273 207.32C100.059 206.573 99.8992 205.827 99.7925 205.08C99.4725 202.2 99.9525 197.56 101.233 191.16C101.339 190.2 101.659 188.547 102.193 186.2C102.833 183.747 103.259 181.827 103.473 180.44C103.793 178.947 103.846 178.2 103.633 178.2C103.419 178.2 102.619 179.533 101.233 182.2C99.8458 184.867 98.4058 188.067 96.9125 191.8C95.5258 195.533 94.7258 198.573 94.5125 200.92C94.4058 202.2 93.9258 203.16 93.0725 203.8C92.2192 204.44 91.3125 204.76 90.3525 204.76C88.7525 204.867 87.5792 204.387 86.8325 203.32C86.0858 202.253 85.6058 200.227 85.3925 197.24C85.2858 195.64 85.2325 193.613 85.2325 191.16C85.2325 185.293 85.6592 180.013 86.5125 175.32C88.1125 165.827 91.2058 156.92 95.7925 148.6C98.0325 144.333 100.913 140.227 104.433 136.28C107.953 132.333 111.259 130.36 114.353 130.36C116.059 130.36 117.339 130.893 118.193 131.96C119.153 133.027 119.633 134.36 119.633 135.96C119.633 138.84 119.046 141.72 117.873 144.6C116.699 147.48 115.419 149.88 114.033 151.8C112.646 153.72 110.673 155.853 108.113 158.2C105.553 160.44 103.686 162.04 102.513 163C101.339 163.853 99.6325 165.08 97.3925 166.68C95.0458 174.253 94.0325 181.187 94.3525 187.48C94.8858 185.987 95.5258 184.333 96.2725 182.52C97.0192 180.6 98.0325 178.307 99.3125 175.64C100.699 172.867 102.299 170.627 104.113 168.92C105.926 167.107 107.739 166.2 109.553 166.2C111.259 166.2 112.379 166.733 112.913 167.8C113.446 168.867 113.713 170.36 113.713 172.28C113.713 173.24 113.499 174.893 113.073 177.24C112.753 179.16 112.006 182.627 110.832 187.64C109.659 192.547 108.753 196.653 108.113 199.96C107.579 203.16 107.579 204.76 108.113 204.76C109.179 204.867 111.633 201.4 115.473 194.36C119.419 187.32 122.513 180.707 124.753 174.52ZM108.753 142.2C105.339 147 102.353 152.707 99.7925 159.32C109.713 151.533 114.673 144.28 114.673 137.56C114.673 137.133 114.513 136.92 114.193 136.92C113.019 136.92 111.206 138.68 108.753 142.2ZM148.173 174.68C148.493 173.827 149.079 173.347 149.933 173.24C150.786 173.027 151.479 173.187 152.013 173.72C152.653 174.253 152.813 174.947 152.493 175.8C151.533 178.253 150.253 180.813 148.653 183.48C147.159 186.04 144.919 188.547 141.933 191C139.053 193.347 136.066 194.52 132.973 194.52C129.346 194.52 126.733 193.027 125.133 190.04C123.532 187.053 122.732 183.64 122.732 179.8C122.732 176.6 123.906 173.453 126.253 170.36C128.706 167.267 131.906 165.72 135.853 165.72C137.133 165.72 138.146 165.933 138.893 166.36C139.746 166.68 140.279 167.16 140.493 167.8C140.813 168.44 140.973 168.973 140.973 169.4C141.079 169.72 141.133 170.147 141.133 170.68C141.133 172.067 140.439 173.56 139.053 175.16C137.666 176.653 136.226 177.88 134.733 178.84C133.346 179.693 132.119 180.28 131.053 180.6C130.839 182.2 131.053 184.067 131.693 186.2C132.333 188.333 133.293 189.4 134.573 189.4C137.026 189.4 139.639 187.64 142.413 184.12C145.293 180.6 147.213 177.453 148.173 174.68ZM132.973 174.2C132.759 174.52 132.546 174.84 132.333 175.16C133.293 174.947 134.253 174.307 135.213 173.24C136.279 172.067 136.813 171.32 136.813 171C136.813 170.68 136.653 170.52 136.333 170.52C135.479 170.52 134.359 171.747 132.973 174.2ZM236.411 173.56C237.798 173.667 238.651 174.2 238.971 175.16C239.291 176.013 238.811 176.653 237.531 177.08C236.465 177.507 235.505 178.307 234.651 179.48C233.478 181.08 232.091 183.427 230.491 186.52C228.998 189.507 227.558 192.333 226.171 195C224.785 197.56 223.131 200.173 221.211 202.84C219.398 205.4 217.211 207.427 214.651 208.92C212.198 210.413 209.478 211.16 206.491 211.16C203.718 211.16 201.265 210.68 199.131 209.72C197.105 208.76 195.505 207.587 194.331 206.2C193.158 204.813 192.198 203.267 191.451 201.56C190.705 199.853 190.171 198.36 189.851 197.08C189.638 195.8 189.531 194.68 189.531 193.72C189.531 183.693 195.291 174.68 206.811 166.68C199.878 166.04 196.411 162.413 196.411 155.8C196.411 150.36 199.025 144.76 204.251 139C209.478 133.24 215.131 130.36 221.211 130.36C224.091 130.36 226.118 131.427 227.291 133.56C228.571 135.693 229.211 137.72 229.211 139.64C229.211 142.413 228.305 144.92 226.491 147.16C224.785 149.293 222.811 150.733 220.571 151.48C219.291 151.907 218.438 151.427 218.011 150.04C217.691 148.653 218.171 147.693 219.451 147.16C221.051 146.627 222.331 145.667 223.291 144.28C224.358 142.787 224.838 141.24 224.731 139.64C224.731 136.867 223.878 135.48 222.171 135.48C219.718 135.48 217.105 136.813 214.331 139.48C211.558 142.04 209.318 144.973 207.611 148.28C205.905 151.48 205.051 154.093 205.051 156.12C205.051 159.96 207.985 162.2 213.851 162.84C214.385 162.84 214.865 163.053 215.291 163.48C215.718 163.8 215.931 164.227 215.931 164.76C215.931 165.827 215.611 166.52 214.971 166.84C213.905 167.587 212.785 168.387 211.611 169.24C210.545 170.093 209.211 171.373 207.611 173.08C206.011 174.68 204.571 176.44 203.291 178.36C202.118 180.173 201.105 182.413 200.251 185.08C199.398 187.64 198.971 190.307 198.971 193.08C198.971 195.213 199.238 197.187 199.771 199C200.305 200.813 201.425 202.52 203.131 204.12C204.838 205.613 207.025 206.36 209.691 206.36C212.145 206.253 214.705 204.493 217.371 201.08C220.038 197.667 222.278 193.933 224.091 189.88C226.011 185.827 228.091 182.093 230.331 178.68C232.571 175.267 234.598 173.56 236.411 173.56ZM270.641 174.2C271.068 173.453 271.655 173.08 272.401 173.08C273.148 173.08 273.735 173.453 274.161 174.2C274.695 174.84 274.801 175.533 274.481 176.28C273.735 177.773 272.935 179.267 272.081 180.76C271.228 182.147 270.001 184.013 268.401 186.36C266.801 188.707 264.988 190.627 262.961 192.12C260.935 193.613 259.015 194.36 257.201 194.36C253.148 194.36 250.588 192.067 249.521 187.48C249.521 187.48 249.415 187.64 249.201 187.96C249.095 188.173 248.935 188.387 248.721 188.6C248.615 188.813 248.401 189.133 248.081 189.56C247.868 189.88 247.601 190.253 247.281 190.68C246.961 191 246.588 191.373 246.161 191.8C245.841 192.12 245.415 192.44 244.881 192.76C244.455 193.08 243.975 193.4 243.441 193.72C243.015 193.933 242.535 194.093 242.001 194.2C241.468 194.307 240.881 194.36 240.241 194.36C237.681 194.36 235.761 193.133 234.481 190.68C233.201 188.227 232.561 185.72 232.561 183.16C232.561 177.827 234.108 173.667 237.201 170.68C240.401 167.693 243.441 166.2 246.321 166.2C248.028 166.2 249.628 166.68 251.121 167.64C251.655 165.827 252.455 164.76 253.521 164.44C255.441 163.8 257.255 164.013 258.961 165.08C260.775 166.04 261.468 167.533 261.041 169.56C260.935 170.307 260.508 171.96 259.761 174.52C259.121 176.973 258.641 179.053 258.321 180.76C258.108 182.467 258.001 184.173 258.001 185.88C258.001 186.627 258.001 187.213 258.001 187.64C258.108 188.067 258.215 188.28 258.321 188.28L258.481 188.44C259.868 188.44 261.521 187.32 263.441 185.08C265.468 182.84 266.961 180.867 267.921 179.16C268.988 177.347 269.895 175.693 270.641 174.2ZM249.201 179.16C249.308 177.667 249.628 175.533 250.161 172.76C250.161 171.8 249.788 171.373 249.041 171.48C246.375 171.267 244.295 172.387 242.801 174.84C241.308 177.187 240.455 179.8 240.241 182.68C240.241 183.747 240.348 184.973 240.561 186.36C240.881 187.747 241.415 188.44 242.161 188.44C243.655 188.44 245.148 187.213 246.641 184.76C248.241 182.307 249.095 180.44 249.201 179.16ZM299.721 173.08C300.468 172.76 301.108 172.92 301.641 173.56C302.175 174.093 302.388 174.787 302.281 175.64C302.175 176.493 301.695 177.08 300.841 177.4C298.068 178.467 294.655 180.493 290.601 183.48C289.321 184.44 288.095 185.453 286.921 186.52C289.375 188.333 290.815 190.147 291.241 191.96C291.775 193.773 291.721 195.693 291.081 197.72C290.441 199.64 289.375 201.08 287.881 202.04C286.495 203 284.735 203.587 282.601 203.8C280.575 203.907 278.815 203.64 277.321 203C275.721 202.253 274.601 201.08 273.961 199.48C273.428 197.773 273.535 196.12 274.281 194.52C275.135 192.387 277.055 189.88 280.041 187C279.401 186.68 278.921 186.413 278.601 186.2C275.295 183.96 272.841 181.667 271.241 179.32C269.641 176.867 269.535 174.093 270.921 171C272.308 167.587 275.135 165.507 279.401 164.76C284.521 164.013 287.881 165.827 289.481 170.2C290.015 171.587 289.535 172.44 288.041 172.76C286.655 173.08 285.748 172.6 285.321 171.32C285.108 170.893 284.841 170.52 284.521 170.2C283.668 169.347 282.388 169.613 280.681 171C279.081 172.387 278.335 173.987 278.441 175.8C278.548 178.253 280.148 180.867 283.241 183.64C283.348 183.64 283.401 183.64 283.401 183.64C288.948 178.733 294.388 175.213 299.721 173.08ZM279.881 199.32C281.375 199.32 282.868 198.787 284.361 197.72C285.855 196.547 286.441 195.107 286.121 193.4C285.801 192.12 285.001 190.787 283.721 189.4C282.761 190.36 281.855 191.32 281.001 192.28C278.975 194.52 277.961 196.173 277.961 197.24C277.961 198.627 278.601 199.32 279.881 199.32ZM373.923 147.32C375.096 146.36 376.216 146.52 377.283 147.8C378.136 148.76 378.083 149.667 377.123 150.52C373.389 153.4 368.856 155.32 363.523 156.28C361.603 156.6 359.576 156.813 357.443 156.92C355.309 157.027 353.176 157.027 351.043 156.92C348.909 156.707 346.829 156.493 344.803 156.28C342.883 156.067 340.749 155.8 338.403 155.48C336.163 155.053 334.136 154.68 332.323 154.36C330.616 153.933 328.536 153.507 326.083 153.08C323.629 152.547 321.603 152.12 320.003 151.8C318.723 151.587 317.656 151.427 316.803 151.32C315.203 154.2 313.869 157.133 312.803 160.12C311.949 162.253 311.203 164.653 310.563 167.32C309.389 171.373 308.429 175.587 307.683 179.96C306.829 184.973 306.403 189.88 306.403 194.68C306.509 204.813 307.149 209.88 308.323 209.88C308.749 209.88 309.229 209.293 309.763 208.12C310.296 207.053 311.256 204.867 312.643 201.56C314.029 198.253 315.469 195 316.963 191.8C321.443 182.733 326.563 176.653 332.323 173.56C333.709 172.813 334.776 173.24 335.523 174.84C335.843 176.013 335.523 176.867 334.563 177.4C331.363 178.573 328.323 181.453 325.443 186.04C322.563 190.627 320.216 195.32 318.403 200.12C316.696 204.813 314.723 209.08 312.483 212.92C310.243 216.76 308.003 218.68 305.763 218.68C303.629 218.68 301.923 217.507 300.643 215.16C299.363 212.813 298.509 210.36 298.082 207.8C295.309 189.453 298.296 171.213 307.043 153.08C307.469 152.12 308.003 151.107 308.643 150.04C305.123 149.613 301.976 149.507 299.203 149.72C291.309 150.147 284.216 152.067 277.922 155.48C276.536 156.227 275.469 155.907 274.722 154.52C274.189 153.347 274.509 152.44 275.682 151.8C282.829 147.853 290.776 145.667 299.523 145.24C302.829 145.133 306.669 145.347 311.043 145.88C315.949 138.52 320.056 134.093 323.363 132.6C324.323 132.173 325.283 132.76 326.243 134.36C327.309 135.853 327.469 136.92 326.723 137.56C323.949 140.44 321.443 143.693 319.203 147.32C319.523 147.32 319.789 147.373 320.003 147.48C321.283 147.693 324.536 148.333 329.763 149.4C335.096 150.36 339.203 151.053 342.083 151.48C350.723 152.76 357.763 152.867 363.203 151.8C365.976 151.267 368.376 150.52 370.403 149.56C371.256 149.133 372.056 148.707 372.803 148.28C373.016 148.067 373.283 147.853 373.603 147.64C373.709 147.64 373.763 147.587 373.763 147.48L373.923 147.32ZM354.735 174.68C355.055 173.827 355.642 173.347 356.495 173.24C357.348 173.027 358.042 173.187 358.575 173.72C359.215 174.253 359.375 174.947 359.055 175.8C358.095 178.253 356.815 180.813 355.215 183.48C353.722 186.04 351.482 188.547 348.495 191C345.615 193.347 342.628 194.52 339.535 194.52C335.908 194.52 333.295 193.027 331.695 190.04C330.095 187.053 329.295 183.64 329.295 179.8C329.295 176.6 330.468 173.453 332.815 170.36C335.268 167.267 338.468 165.72 342.415 165.72C343.695 165.72 344.708 165.933 345.455 166.36C346.308 166.68 346.842 167.16 347.055 167.8C347.375 168.44 347.535 168.973 347.535 169.4C347.642 169.72 347.695 170.147 347.695 170.68C347.695 172.067 347.002 173.56 345.615 175.16C344.228 176.653 342.788 177.88 341.295 178.84C339.908 179.693 338.682 180.28 337.615 180.6C337.402 182.2 337.615 184.067 338.255 186.2C338.895 188.333 339.855 189.4 341.135 189.4C343.588 189.4 346.202 187.64 348.975 184.12C351.855 180.6 353.775 177.453 354.735 174.68ZM339.535 174.2C339.322 174.52 339.108 174.84 338.895 175.16C339.855 174.947 340.815 174.307 341.775 173.24C342.842 172.067 343.375 171.32 343.375 171C343.375 170.68 343.215 170.52 342.895 170.52C342.042 170.52 340.922 171.747 339.535 174.2ZM384.093 175C384.839 175 385.373 175.267 385.693 175.8C386.119 176.333 386.279 176.92 386.173 177.56C386.066 178.947 385.373 179.533 384.093 179.32C377.373 179.427 372.626 177.347 369.853 173.08C369.213 174.36 368.253 176.867 366.973 180.6C365.693 184.547 364.519 188.707 363.453 193.08C363.239 193.613 362.919 194.04 362.493 194.36C361.959 194.68 361.373 194.893 360.733 195C359.026 195.213 357.586 194.787 356.413 193.72C355.559 192.867 355.026 191.267 354.812 188.92C354.386 183.693 354.492 179.16 355.133 175.32C355.133 175.107 355.186 174.893 355.293 174.68C355.293 174.253 355.453 173.933 355.773 173.72C356.733 172.12 358.173 171.693 360.092 172.44C362.333 173.4 363.293 175.107 362.973 177.56C362.866 178.093 362.813 178.733 362.813 179.48C364.093 175.427 365.373 172.227 366.653 169.88C368.253 166.787 370.013 165.24 371.933 165.24C372.359 165.24 372.733 165.347 373.053 165.56C373.479 165.773 373.799 165.987 374.013 166.2C374.333 166.307 374.599 166.573 374.812 167C375.133 167.427 375.346 167.747 375.453 167.96C375.666 168.173 375.879 168.547 376.093 169.08C376.413 169.507 376.626 169.827 376.733 170.04C378.546 173.027 380.999 174.68 384.093 175ZM416.553 176.12C416.979 174.84 417.886 174.413 419.273 174.84C420.659 175.16 421.139 175.96 420.713 177.24C414.099 201.133 408.499 213.08 403.913 213.08C396.766 213.08 393.939 206.467 395.433 193.24C395.646 191.853 395.966 189.72 396.393 186.84C396.819 183.853 397.139 181.613 397.353 180.12C397.353 179.373 397.353 178.787 397.353 178.36C395.859 179.533 394.366 181.667 392.872 184.76C391.379 187.853 390.526 190.413 390.313 192.44C390.313 192.973 389.939 193.453 389.193 193.88C388.446 194.2 387.646 194.36 386.793 194.36C385.833 194.253 385.033 193.987 384.393 193.56C382.899 192.813 382.046 191.267 381.832 188.92C381.299 183.48 381.352 178.733 381.992 174.68C381.992 174.467 382.046 174.253 382.152 174.04C382.259 173.507 382.473 173.08 382.793 172.76C383.859 171.48 385.406 171.107 387.433 171.64C389.566 172.173 390.899 173.24 391.433 174.84C391.433 175.587 391.433 176.12 391.433 176.44C391.433 176.76 391.273 177.293 390.953 178.04C390.739 178.787 390.633 179.32 390.633 179.64C394.793 171.64 398.739 167.64 402.473 167.64C405.459 167.64 406.793 170.093 406.473 175C406.366 177.027 405.886 180.653 405.033 185.88C404.073 191.427 403.486 195.213 403.273 197.24C403.059 199.267 402.953 200.973 402.953 202.36C403.059 204.92 403.379 206.2 403.913 206.2C405.939 206.2 408.606 201.347 411.913 191.64C412.446 189.827 413.193 187.16 414.153 183.64C415.219 180.12 416.019 177.613 416.553 176.12ZM426.626 132.28C427.16 132.28 427.64 132.44 428.066 132.76C428.493 132.973 428.813 133.293 429.026 133.72C429.24 134.147 429.346 134.573 429.346 135C429.346 136.6 428.92 138.147 428.066 139.64C427.213 141.027 426.36 141.72 425.506 141.72C425.4 141.72 425.346 141.613 425.346 141.4C425.346 141.08 425.4 140.76 425.506 140.44C425.613 140.12 425.666 139.8 425.666 139.48C425.773 139.053 425.826 138.68 425.826 138.36C425.933 138.04 425.933 137.827 425.826 137.72C424.546 137.293 423.906 136.387 423.906 135C423.906 134.253 424.173 133.613 424.706 133.08C425.24 132.547 425.88 132.28 426.626 132.28ZM466.753 173.08C467.499 172.76 468.139 172.92 468.673 173.56C469.206 174.093 469.419 174.787 469.313 175.64C469.206 176.493 468.726 177.08 467.873 177.4C465.099 178.467 461.686 180.493 457.633 183.48C456.353 184.44 455.126 185.453 453.953 186.52C456.406 188.333 457.846 190.147 458.273 191.96C458.806 193.773 458.753 195.693 458.113 197.72C457.473 199.64 456.406 201.08 454.913 202.04C453.526 203 451.766 203.587 449.633 203.8C447.606 203.907 445.846 203.64 444.353 203C442.753 202.253 441.633 201.08 440.993 199.48C440.459 197.773 440.566 196.12 441.313 194.52C442.166 192.387 444.086 189.88 447.073 187C446.433 186.68 445.953 186.413 445.633 186.2C442.326 183.96 439.873 181.667 438.273 179.32C436.672 176.867 436.566 174.093 437.953 171C439.339 167.587 442.166 165.507 446.433 164.76C451.553 164.013 454.913 165.827 456.513 170.2C457.046 171.587 456.566 172.44 455.073 172.76C453.686 173.08 452.779 172.6 452.353 171.32C452.139 170.893 451.873 170.52 451.553 170.2C450.699 169.347 449.419 169.613 447.713 171C446.113 172.387 445.366 173.987 445.473 175.8C445.579 178.253 447.179 180.867 450.273 183.64C450.379 183.64 450.433 183.64 450.433 183.64C455.979 178.733 461.419 175.213 466.753 173.08ZM446.913 199.32C448.406 199.32 449.899 198.787 451.393 197.72C452.886 196.547 453.473 195.107 453.153 193.4C452.833 192.12 452.033 190.787 450.753 189.4C449.793 190.36 448.886 191.32 448.033 192.28C446.006 194.52 444.993 196.173 444.993 197.24C444.993 198.627 445.633 199.32 446.913 199.32ZM553.755 173.56C555.142 173.667 555.995 174.2 556.315 175.16C556.635 176.013 556.155 176.653 554.875 177.08C553.808 177.507 552.848 178.307 551.995 179.48C550.822 181.08 549.435 183.427 547.835 186.52C546.342 189.507 544.902 192.333 543.515 195C542.128 197.56 540.475 200.173 538.555 202.84C536.742 205.4 534.555 207.427 531.995 208.92C529.542 210.413 526.822 211.16 523.835 211.16C521.062 211.16 518.608 210.68 516.475 209.72C514.448 208.76 512.848 207.587 511.675 206.2C510.502 204.813 509.542 203.267 508.795 201.56C508.048 199.853 507.515 198.36 507.195 197.08C506.982 195.8 506.875 194.68 506.875 193.72C506.875 183.693 512.635 174.68 524.155 166.68C517.222 166.04 513.755 162.413 513.755 155.8C513.755 150.36 516.368 144.76 521.595 139C526.822 133.24 532.475 130.36 538.555 130.36C541.435 130.36 543.462 131.427 544.635 133.56C545.915 135.693 546.555 137.72 546.555 139.64C546.555 142.413 545.648 144.92 543.835 147.16C542.128 149.293 540.155 150.733 537.915 151.48C536.635 151.907 535.782 151.427 535.355 150.04C535.035 148.653 535.515 147.693 536.795 147.16C538.395 146.627 539.675 145.667 540.635 144.28C541.702 142.787 542.182 141.24 542.075 139.64C542.075 136.867 541.222 135.48 539.515 135.48C537.062 135.48 534.448 136.813 531.675 139.48C528.902 142.04 526.662 144.973 524.955 148.28C523.248 151.48 522.395 154.093 522.395 156.12C522.395 159.96 525.328 162.2 531.195 162.84C531.728 162.84 532.208 163.053 532.635 163.48C533.062 163.8 533.275 164.227 533.275 164.76C533.275 165.827 532.955 166.52 532.315 166.84C531.248 167.587 530.128 168.387 528.955 169.24C527.888 170.093 526.555 171.373 524.955 173.08C523.355 174.68 521.915 176.44 520.635 178.36C519.462 180.173 518.448 182.413 517.595 185.08C516.742 187.64 516.315 190.307 516.315 193.08C516.315 195.213 516.582 197.187 517.115 199C517.648 200.813 518.768 202.52 520.475 204.12C522.182 205.613 524.368 206.36 527.035 206.36C529.488 206.253 532.048 204.493 534.715 201.08C537.382 197.667 539.622 193.933 541.435 189.88C543.355 185.827 545.435 182.093 547.675 178.68C549.915 175.267 551.942 173.56 553.755 173.56ZM587.985 174.2C588.412 173.453 588.998 173.08 589.745 173.08C590.492 173.08 591.078 173.453 591.505 174.2C592.038 174.84 592.145 175.533 591.825 176.28C591.078 177.773 590.278 179.267 589.425 180.76C588.572 182.147 587.345 184.013 585.745 186.36C584.145 188.707 582.332 190.627 580.305 192.12C578.278 193.613 576.358 194.36 574.545 194.36C570.492 194.36 567.932 192.067 566.865 187.48C566.865 187.48 566.758 187.64 566.545 187.96C566.438 188.173 566.278 188.387 566.065 188.6C565.958 188.813 565.745 189.133 565.425 189.56C565.212 189.88 564.945 190.253 564.625 190.68C564.305 191 563.932 191.373 563.505 191.8C563.185 192.12 562.758 192.44 562.225 192.76C561.798 193.08 561.318 193.4 560.785 193.72C560.358 193.933 559.878 194.093 559.345 194.2C558.812 194.307 558.225 194.36 557.585 194.36C555.025 194.36 553.105 193.133 551.825 190.68C550.545 188.227 549.905 185.72 549.905 183.16C549.905 177.827 551.452 173.667 554.545 170.68C557.745 167.693 560.785 166.2 563.665 166.2C565.372 166.2 566.972 166.68 568.465 167.64C568.998 165.827 569.798 164.76 570.865 164.44C572.785 163.8 574.598 164.013 576.305 165.08C578.118 166.04 578.812 167.533 578.385 169.56C578.278 170.307 577.852 171.96 577.105 174.52C576.465 176.973 575.985 179.053 575.665 180.76C575.452 182.467 575.345 184.173 575.345 185.88C575.345 186.627 575.345 187.213 575.345 187.64C575.452 188.067 575.558 188.28 575.665 188.28L575.825 188.44C577.212 188.44 578.865 187.32 580.785 185.08C582.812 182.84 584.305 180.867 585.265 179.16C586.332 177.347 587.238 175.693 587.985 174.2ZM566.545 179.16C566.652 177.667 566.972 175.533 567.505 172.76C567.505 171.8 567.132 171.373 566.385 171.48C563.718 171.267 561.638 172.387 560.145 174.84C558.652 177.187 557.798 179.8 557.585 182.68C557.585 183.747 557.692 184.973 557.905 186.36C558.225 187.747 558.758 188.44 559.505 188.44C560.998 188.44 562.492 187.213 563.985 184.76C565.585 182.307 566.438 180.44 566.545 179.16ZM617.065 173.08C617.812 172.76 618.452 172.92 618.985 173.56C619.518 174.093 619.732 174.787 619.625 175.64C619.518 176.493 619.038 177.08 618.185 177.4C615.412 178.467 611.998 180.493 607.945 183.48C606.665 184.44 605.438 185.453 604.265 186.52C606.718 188.333 608.158 190.147 608.585 191.96C609.118 193.773 609.065 195.693 608.425 197.72C607.785 199.64 606.718 201.08 605.225 202.04C603.838 203 602.078 203.587 599.945 203.8C597.918 203.907 596.158 203.64 594.665 203C593.065 202.253 591.945 201.08 591.305 199.48C590.772 197.773 590.878 196.12 591.625 194.52C592.478 192.387 594.398 189.88 597.385 187C596.745 186.68 596.265 186.413 595.945 186.2C592.638 183.96 590.185 181.667 588.585 179.32C586.985 176.867 586.878 174.093 588.265 171C589.652 167.587 592.478 165.507 596.745 164.76C601.865 164.013 605.225 165.827 606.825 170.2C607.358 171.587 606.878 172.44 605.385 172.76C603.998 173.08 603.092 172.6 602.665 171.32C602.452 170.893 602.185 170.52 601.865 170.2C601.012 169.347 599.732 169.613 598.025 171C596.425 172.387 595.678 173.987 595.785 175.8C595.892 178.253 597.492 180.867 600.585 183.64C600.692 183.64 600.745 183.64 600.745 183.64C606.292 178.733 611.732 175.213 617.065 173.08ZM597.225 199.32C598.718 199.32 600.212 198.787 601.705 197.72C603.198 196.547 603.785 195.107 603.465 193.4C603.145 192.12 602.345 190.787 601.065 189.4C600.105 190.36 599.198 191.32 598.345 192.28C596.318 194.52 595.305 196.173 595.305 197.24C595.305 198.627 595.945 199.32 597.225 199.32ZM691.266 147.32C692.44 146.36 693.56 146.52 694.626 147.8C695.48 148.76 695.426 149.667 694.466 150.52C690.733 153.4 686.2 155.32 680.866 156.28C678.946 156.6 676.92 156.813 674.786 156.92C672.653 157.027 670.52 157.027 668.386 156.92C666.253 156.707 664.173 156.493 662.146 156.28C660.226 156.067 658.093 155.8 655.746 155.48C653.506 155.053 651.48 154.68 649.666 154.36C647.96 153.933 645.88 153.507 643.426 153.08C640.973 152.547 638.946 152.12 637.346 151.8C636.066 151.587 635 151.427 634.146 151.32C632.546 154.2 631.213 157.133 630.146 160.12C629.293 162.253 628.546 164.653 627.906 167.32C626.733 171.373 625.773 175.587 625.026 179.96C624.173 184.973 623.746 189.88 623.746 194.68C623.853 204.813 624.493 209.88 625.666 209.88C626.093 209.88 626.573 209.293 627.106 208.12C627.64 207.053 628.6 204.867 629.986 201.56C631.373 198.253 632.813 195 634.306 191.8C638.786 182.733 643.906 176.653 649.666 173.56C651.053 172.813 652.12 173.24 652.866 174.84C653.186 176.013 652.866 176.867 651.906 177.4C648.706 178.573 645.666 181.453 642.786 186.04C639.906 190.627 637.56 195.32 635.746 200.12C634.04 204.813 632.066 209.08 629.826 212.92C627.586 216.76 625.346 218.68 623.106 218.68C620.973 218.68 619.266 217.507 617.986 215.16C616.706 212.813 615.853 210.36 615.426 207.8C612.653 189.453 615.64 171.213 624.386 153.08C624.813 152.12 625.346 151.107 625.986 150.04C622.466 149.613 619.32 149.507 616.546 149.72C608.653 150.147 601.56 152.067 595.266 155.48C593.88 156.227 592.813 155.907 592.066 154.52C591.533 153.347 591.853 152.44 593.026 151.8C600.173 147.853 608.12 145.667 616.866 145.24C620.173 145.133 624.013 145.347 628.386 145.88C633.293 138.52 637.4 134.093 640.706 132.6C641.666 132.173 642.626 132.76 643.586 134.36C644.653 135.853 644.813 136.92 644.066 137.56C641.293 140.44 638.786 143.693 636.546 147.32C636.866 147.32 637.133 147.373 637.346 147.48C638.626 147.693 641.88 148.333 647.106 149.4C652.44 150.36 656.546 151.053 659.426 151.48C668.066 152.76 675.106 152.867 680.546 151.8C683.32 151.267 685.72 150.52 687.746 149.56C688.6 149.133 689.4 148.707 690.146 148.28C690.36 148.067 690.626 147.853 690.946 147.64C691.053 147.64 691.106 147.587 691.106 147.48L691.266 147.32ZM672.079 174.68C672.399 173.827 672.985 173.347 673.839 173.24C674.692 173.027 675.385 173.187 675.919 173.72C676.559 174.253 676.719 174.947 676.399 175.8C675.439 178.253 674.159 180.813 672.559 183.48C671.065 186.04 668.825 188.547 665.839 191C662.959 193.347 659.972 194.52 656.879 194.52C653.252 194.52 650.639 193.027 649.039 190.04C647.439 187.053 646.639 183.64 646.639 179.8C646.639 176.6 647.812 173.453 650.159 170.36C652.612 167.267 655.812 165.72 659.759 165.72C661.039 165.72 662.052 165.933 662.799 166.36C663.652 166.68 664.185 167.16 664.399 167.8C664.719 168.44 664.879 168.973 664.879 169.4C664.985 169.72 665.039 170.147 665.039 170.68C665.039 172.067 664.345 173.56 662.959 175.16C661.572 176.653 660.132 177.88 658.639 178.84C657.252 179.693 656.025 180.28 654.959 180.6C654.745 182.2 654.959 184.067 655.599 186.2C656.239 188.333 657.199 189.4 658.479 189.4C660.932 189.4 663.545 187.64 666.319 184.12C669.199 180.6 671.119 177.453 672.079 174.68ZM656.879 174.2C656.665 174.52 656.452 174.84 656.239 175.16C657.199 174.947 658.159 174.307 659.119 173.24C660.185 172.067 660.719 171.32 660.719 171C660.719 170.68 660.559 170.52 660.239 170.52C659.385 170.52 658.265 171.747 656.879 174.2ZM701.436 175C702.183 175 702.716 175.267 703.036 175.8C703.463 176.333 703.623 176.92 703.516 177.56C703.41 178.947 702.716 179.533 701.436 179.32C694.716 179.427 689.97 177.347 687.196 173.08C686.556 174.36 685.596 176.867 684.316 180.6C683.036 184.547 681.863 188.707 680.796 193.08C680.583 193.613 680.263 194.04 679.836 194.36C679.303 194.68 678.716 194.893 678.076 195C676.37 195.213 674.93 194.787 673.756 193.72C672.903 192.867 672.37 191.267 672.156 188.92C671.73 183.693 671.836 179.16 672.476 175.32C672.476 175.107 672.53 174.893 672.636 174.68C672.636 174.253 672.796 173.933 673.116 173.72C674.076 172.12 675.516 171.693 677.436 172.44C679.676 173.4 680.636 175.107 680.316 177.56C680.21 178.093 680.156 178.733 680.156 179.48C681.436 175.427 682.716 172.227 683.996 169.88C685.596 166.787 687.356 165.24 689.276 165.24C689.703 165.24 690.076 165.347 690.396 165.56C690.823 165.773 691.143 165.987 691.356 166.2C691.676 166.307 691.943 166.573 692.156 167C692.476 167.427 692.69 167.747 692.796 167.96C693.01 168.173 693.223 168.547 693.436 169.08C693.756 169.507 693.97 169.827 694.076 170.04C695.89 173.027 698.343 174.68 701.436 175Z" fill="#FAFF05"/>
</g>
<g id="Group 1" filter="url(#filter1_dd)">
<path id="Vector 1" d="M605.544 115.677C637.379 101.692 710.732 92.5885 749.466 168.06" stroke="#FAFF05" stroke-width="4"/>
<path id="line3" d="M697.089 94.9865L714.874 46.1225" stroke="#FAFF05" stroke-width="4"/>
<line id="line4" y1="-2" x2="49.7771" y2="-2" transform="matrix(0.686578 -0.727056 0.728064 0.685509 738.297 113.339)" stroke="#FAFF05" stroke-width="4"/>
<line id="line2" y1="-2" x2="49.7771" y2="-2" transform="matrix(-0.058607 -0.998281 -0.998366 0.0571392 648.532 80.6669)" stroke="#FAFF05" stroke-width="4"/>
<line id="line5" y1="-2" x2="49.0757" y2="-2" transform="matrix(0.906735 -0.421702 0.423534 0.90588 760.696 144.129)" stroke="#FAFF05" stroke-width="4"/>
<line id="line1" y1="-2" x2="49.0757" y2="-2" transform="matrix(-0.423534 -0.90588 -0.906735 0.421702 605.647 87.696)" stroke="#FAFF05" stroke-width="4"/>
</g>
</g>
<defs>
<filter id="filter0_d" x="0" y="100.36" width="733.548" height="148.32" filterUnits="userSpaceOnUse" color-interpolation-filters="sRGB">
<feFlood flood-opacity="0" result="BackgroundImageFix"/>
<feColorMatrix in="SourceAlpha" type="matrix" values="0 0 0 0 0 0 0 0 0 0 0 0 0 0 0 0 0 0 127 0"/>
<feOffset/>
<feGaussianBlur stdDeviation="15"/>
<feColorMatrix type="matrix" values="0 0 0 0 0.980392 0 0 0 0 1 0 0 0 0 0.0196078 0 0 0 1 0"/>
<feBlend mode="normal" in2="BackgroundImageFix" result="effect1_dropShadow"/>
<feBlend mode="normal" in="SourceGraphic" in2="effect1_dropShadow" result="shape"/>
</filter>
<filter id="filter1_dd" x="554.862" y="0.746887" width="280.333" height="199.157" filterUnits="userSpaceOnUse" color-interpolation-filters="sRGB">
<feFlood flood-opacity="0" result="BackgroundImageFix"/>
<feColorMatrix in="SourceAlpha" type="matrix" values="0 0 0 0 0 0 0 0 0 0 0 0 0 0 0 0 0 0 127 0"/>
<feOffset/>
<feGaussianBlur stdDeviation="15"/>
<feColorMatrix type="matrix" values="0 0 0 0 0.980392 0 0 0 0 1 0 0 0 0 0.0196078 0 0 0 1 0"/>
<feBlend mode="normal" in2="BackgroundImageFix" result="effect1_dropShadow"/>
<feColorMatrix in="SourceAlpha" type="matrix" values="0 0 0 0 0 0 0 0 0 0 0 0 0 0 0 0 0 0 127 0"/>
<feOffset/>
<feGaussianBlur stdDeviation="15"/>
<feColorMatrix type="matrix" values="0 0 0 0 0.980392 0 0 0 0 1 0 0 0 0 0.0196078 0 0 0 1 0"/>
<feBlend mode="normal" in2="effect1_dropShadow" result="effect2_dropShadow"/>
<feBlend mode="normal" in="SourceGraphic" in2="effect2_dropShadow" result="shape"/>
</filter>
</defs>
</svg>
